<?xml version="1.0" encoding="UTF-8"?>
<svg id="_レイヤー_1" data-name="レイヤー_1" xmlns="http://www.w3.org/2000/svg" version="1.1" viewBox="0 0 192 192">
  <!-- Generator: Adobe Illustrator 29.7.1, SVG Export Plug-In . SVG Version: 2.1.1 Build 8)  -->
  <defs>
    <style>
      .st0 {
        fill: #fff;
      }

      .st1 {
        fill: #2f52a2;
      }
    </style>
  </defs>
  <rect class="st1" x="0" width="192" height="192" rx="28" ry="28"/>
  <g>
    <polygon class="st0" points="9.8 124.96 9.8 57.81 25.93 57.81 40.27 78.35 54.7 57.81 70.92 57.81 70.92 124.96 54.62 124.96 54.62 84.3 40.36 102.8 26.18 84.21 26.18 124.96 9.8 124.96"/>
    <path class="st0" d="M132,57.48h-14.13c-5.73,0-25.68,0-34.51,22.03-4.62,11.53-6.88,33.57,6.11,55.01l13.5-9.85s-5.35-7.64-7.55-22.24h20.2l.17,22.24h18.16v-50.76h-18v14.26l-17.15-.17s2.89-16.81,20.08-16.3h17.1l-3.99-14.22h0Z"/>
    <polygon class="st0" points="145.48 57.97 161.65 57.97 161.65 110.56 184.2 110.56 180.51 124.8 145.48 124.8 145.48 57.97"/>
  </g>
</svg>